<svg width="28" height="28" viewBox="0 0 28 28" fill="none" xmlns="http://www.w3.org/2000/svg">
<path d="M15.5466 14.0008L27.6794 1.86797C28.1066 1.44081 28.1066 0.748245 27.6794 0.321136C27.2522 -0.105973 26.5597 -0.106028 26.1326 0.321136L13.9997 12.454L1.86696 0.321136C1.4398 -0.106028 0.747237 -0.106028 0.320128 0.321136C-0.10698 0.7483 -0.107035 1.44086 0.320128 1.86797L12.4529 14.0008L0.320128 26.1336C-0.107035 26.5608 -0.107035 27.2534 0.320128 27.6805C0.533683 27.894 0.813627 28.0008 1.09357 28.0008C1.37352 28.0008 1.65341 27.894 1.86702 27.6805L13.9997 15.5477L26.1325 27.6805C26.3461 27.894 26.626 28.0008 26.906 28.0008C27.1859 28.0008 27.4658 27.894 27.6794 27.6805C28.1066 27.2533 28.1066 26.5607 27.6794 26.1336L15.5466 14.0008Z" fill="#E0E0E0"/>
</svg>
